<svg width="58" height="58" viewBox="0 0 58 58" fill="none" xmlns="http://www.w3.org/2000/svg">
<path fill-rule="evenodd" clip-rule="evenodd" d="M56.7706 30.003L31.146 0.931606C30.0669 -0.295187 27.9742 -0.313269 26.8742 0.894695L0.754771 29.519C0.379406 29.9303 0.130985 30.4419 0.03927 30.9918C-0.052243 31.5416 0.0169993 32.1067 0.238493 32.6179C0.46019 33.1292 0.824621 33.5653 1.28806 33.8731C1.75129 34.1809 2.29369 34.3473 2.84925 34.3521L8.59857 34.4019L8.42526 54.5952C8.41878 55.3604 8.71539 56.0967 9.24989 56.6424C9.78419 57.1882 10.5129 57.4984 11.2753 57.5049L26.5963 57.6374V53.3717H17.7879V46.9134H32.6167C33.0319 46.9134 33.3978 46.7547 33.714 46.4372C34.0305 46.0999 34.1886 45.7031 34.1886 45.2468C34.1886 44.7905 34.0305 44.5028 33.714 44.3837C33.3978 44.2447 33.0319 44.1754 32.6167 44.1754H25.8548C24.7277 44.1754 23.6701 43.967 22.6814 43.5503C21.7127 43.1138 20.8623 42.5285 20.1308 41.7944C19.4192 41.0405 18.8458 40.1674 18.4107 39.1753C17.9955 38.1832 17.7879 37.1218 17.7879 35.9908C17.7879 34.8798 17.9955 33.8381 18.4107 32.8657C18.8458 31.8738 19.4192 31.0107 20.1308 30.2765C20.8623 29.5424 21.7127 28.967 22.6814 28.5503C23.6701 28.1139 24.7277 27.8957 25.8548 27.8957H26.5963V19.8301H32.0532V27.8957H38.993V34.4135H25.8548C25.4001 34.4135 25.0144 34.5722 24.6982 34.8895C24.3817 35.1872 24.2236 35.5543 24.2236 35.9908C24.2236 36.4471 24.3817 36.8341 24.6982 37.1515C25.0144 37.4691 25.4001 37.6277 25.8548 37.6277H32.6167C33.7239 37.6277 34.762 37.8163 35.7308 38.1932C36.7194 38.5703 37.5794 39.0961 38.3109 39.7706C39.0424 40.4452 39.6158 41.2487 40.0311 42.1813C40.4662 43.1138 40.6836 44.1356 40.6836 45.2468C40.6836 46.3776 40.4662 47.4392 40.0311 48.4313C39.6158 49.4234 39.0424 50.2865 38.3109 51.0206C37.5794 51.735 36.7194 52.3103 35.7308 52.7468C34.762 53.1635 33.7239 53.3717 32.6167 53.3717H32.0532V57.6845L45.7713 57.803C46.5337 57.8097 47.2675 57.512 47.8113 56.9756C48.3551 56.4393 48.6643 55.7082 48.6707 54.9431L48.844 34.7496L54.5934 34.7993C55.1501 34.8064 55.6968 34.651 56.1669 34.3517C56.6372 34.0525 57.0104 33.6223 57.2412 33.1138C57.472 32.6055 57.5503 32.0406 57.4667 31.4882C57.3833 30.9358 57.1414 30.4197 56.7706 30.003Z" fill="#00847C"/>
</svg>
